<svg width="51" height="58" viewBox="0 0 51 58" fill="none" xmlns="http://www.w3.org/2000/svg">
<path fill-rule="evenodd" clip-rule="evenodd" d="M18.1164 44H5.83409C2.61558 44 0 41.3844 0 38.1659V9.09329C0 5.87478 2.61558 3.2592 5.83409 3.2592H8.14814V1.6296C8.14814 0.733293 8.88143 0 9.77773 0C10.674 0 11.4075 0.733293 11.4075 1.6296V3.2592H30.9629V1.6296C30.9629 0.733293 31.6962 0 32.5925 0C33.4888 0 34.2223 0.733293 34.2223 1.6296V3.2592H36.5363C39.7548 3.2592 42.3704 5.87478 42.3704 9.09329V26.6765C41.3377 26.1789 40.247 25.7826 39.1112 25.5005V17.1111H3.25934V38.1659C3.25934 39.5836 4.41636 40.7407 5.83409 40.7407H18.0459C18.0155 41.1565 18 41.5764 18 42C18 42.6766 18.0395 43.344 18.1164 44ZM5.83409 6.51853C4.41636 6.51853 3.25934 7.67556 3.25934 9.09329V13.8519H39.1109V9.09329C39.1109 7.67556 37.9539 6.51853 36.5362 6.51853H34.2221V8.14813C34.2221 9.04444 33.4888 9.77773 32.5925 9.77773C31.6962 9.77773 30.9629 9.04444 30.9629 8.14813V6.51853H11.4073V8.14813C11.4073 9.04444 10.674 9.77773 9.77773 9.77773C8.88143 9.77773 8.14814 9.04444 8.14814 8.14813V6.51853H5.83409Z" fill="#FD6262"/>
<path d="M29.0205 36.3956C29.3854 36.0497 29.9771 36.0497 30.342 36.3956L40.6495 46.1667C41.0144 46.5126 41.0144 47.0735 40.6495 47.4194C40.2846 47.7653 39.6929 47.7653 39.328 47.4194L29.0205 37.6483C28.6556 37.3024 28.6556 36.7415 29.0205 36.3956Z" fill="#FD6262"/>
<path d="M29.1418 47.4196C28.7769 47.0737 28.7769 46.5129 29.1418 46.1669L39.4493 36.3958C39.8142 36.0499 40.4059 36.0499 40.7708 36.3958C41.1357 36.7417 41.1357 37.3026 40.7708 37.6485L30.4633 47.4196C30.0984 47.7656 29.5067 47.7656 29.1418 47.4196Z" fill="#FD6262"/>
<path d="M34.9394 27C31.9847 27 29.0963 27.8743 26.6395 29.5124C24.1827 31.1505 22.2679 33.4787 21.1372 36.2028C20.0065 38.9268 19.7106 41.9242 20.2871 44.816C20.8635 47.7078 22.2863 50.3641 24.3757 52.449C26.465 54.5339 29.1269 55.9537 32.0249 56.5289C34.9228 57.1041 37.9266 56.8089 40.6565 55.6806C43.3863 54.5523 45.7195 52.6415 47.361 50.19C49.0026 47.7384 49.8788 44.8561 49.8788 41.9077C49.8744 37.9553 48.299 34.166 45.4982 31.3712C42.6975 28.5765 38.9002 27.0044 34.9394 27ZM34.9394 54.5065C32.4423 54.5065 30.0013 53.7676 27.925 52.3832C25.8487 50.9988 24.2305 49.0312 23.2749 46.729C22.3193 44.4269 22.0693 41.8937 22.5564 39.4498C23.0436 37.0059 24.246 34.761 26.0118 32.999C27.7775 31.237 30.0272 30.0371 32.4763 29.551C34.9254 29.0649 37.464 29.3144 39.771 30.2679C42.078 31.2215 44.0499 32.8363 45.4372 34.9082C46.8245 36.98 47.565 39.4159 47.565 41.9077C47.5612 45.2479 46.2298 48.4503 43.8628 50.8122C41.4959 53.1741 38.2867 54.5027 34.9394 54.5065Z" fill="#FD6262"/>
<path d="M29.0205 36.3956C29.3854 36.0497 29.9771 36.0497 30.342 36.3956L40.6495 46.1667C41.0144 46.5126 41.0144 47.0735 40.6495 47.4194C40.2846 47.7653 39.6929 47.7653 39.328 47.4194L29.0205 37.6483C28.6556 37.3024 28.6556 36.7415 29.0205 36.3956Z" stroke="#FD6262" stroke-width="1.1"/>
<path d="M29.1418 47.4196C28.7769 47.0737 28.7769 46.5129 29.1418 46.1669L39.4493 36.3958C39.8142 36.0499 40.4059 36.0499 40.7708 36.3958C41.1357 36.7417 41.1357 37.3026 40.7708 37.6485L30.4633 47.4196C30.0984 47.7656 29.5067 47.7656 29.1418 47.4196Z" stroke="#FD6262" stroke-width="1.1"/>
<path d="M34.9394 27C31.9847 27 29.0963 27.8743 26.6395 29.5124C24.1827 31.1505 22.2679 33.4787 21.1372 36.2028C20.0065 38.9268 19.7106 41.9242 20.2871 44.816C20.8635 47.7078 22.2863 50.3641 24.3757 52.449C26.465 54.5339 29.1269 55.9537 32.0249 56.5289C34.9228 57.1041 37.9266 56.8089 40.6565 55.6806C43.3863 54.5523 45.7195 52.6415 47.361 50.19C49.0026 47.7384 49.8788 44.8561 49.8788 41.9077C49.8744 37.9553 48.299 34.166 45.4982 31.3712C42.6975 28.5765 38.9002 27.0044 34.9394 27ZM34.9394 54.5065C32.4423 54.5065 30.0013 53.7676 27.925 52.3832C25.8487 50.9988 24.2305 49.0312 23.2749 46.729C22.3193 44.4269 22.0693 41.8937 22.5564 39.4498C23.0436 37.0059 24.246 34.761 26.0118 32.999C27.7775 31.237 30.0272 30.0371 32.4763 29.551C34.9254 29.0649 37.464 29.3144 39.771 30.2679C42.078 31.2215 44.0499 32.8363 45.4372 34.9082C46.8245 36.98 47.565 39.4159 47.565 41.9077C47.5612 45.2479 46.2298 48.4503 43.8628 50.8122C41.4959 53.1741 38.2867 54.5027 34.9394 54.5065Z" stroke="#FD6262" stroke-width="1.1"/>
</svg>
