<svg width="59" height="58" viewBox="0 0 59 58" fill="none" xmlns="http://www.w3.org/2000/svg">
<path d="M22.2197 33.741C23.1676 33.741 23.9361 32.9745 23.9361 32.0282C23.9361 31.082 23.1676 30.3155 22.2197 30.3155H12.093C11.1452 30.3155 10.3767 31.082 10.3767 32.0282C10.3767 32.9745 11.1452 33.741 12.093 33.741H22.2197Z" fill="#FD6262"/>
<path d="M44.1894 24.5753V10.2893C44.1894 4.60299 39.5775 0 33.8782 0H10.5612C4.86235 0 0.25 4.60213 0.25 10.2893V33.5569C0.25 39.244 4.86192 43.8462 10.5612 43.8462H25.8215C25.764 43.269 25.7348 42.6841 25.7348 42.0923C25.7348 41.5288 25.7619 40.9705 25.8138 40.4207H10.5612C6.75938 40.4207 3.68277 37.3506 3.68277 33.5569V10.2893C3.68277 6.49557 6.75938 3.42548 10.5612 3.42548H33.8782C37.68 3.42548 40.7566 6.49557 40.7566 10.2893V24.738C41.5904 24.6172 42.443 24.5538 43.3106 24.5538C43.6054 24.5538 43.8985 24.5607 44.1894 24.5753Z" fill="#FD6262"/>
<path d="M12.093 20.2103H32.3464C32.9171 20.2103 33.4225 20.4878 33.7345 20.916C33.9409 21.1986 34.0627 21.5463 34.0627 21.9231C34.0627 22.8694 33.2942 23.6358 32.3464 23.6358H12.093C11.1452 23.6358 10.3767 22.8694 10.3767 21.9231C10.3767 20.9768 11.1452 20.2103 12.093 20.2103Z" fill="#FD6262"/>
<path d="M12.093 10.1052H32.3464C32.8012 10.1052 33.2144 10.2816 33.5216 10.5693C33.8546 10.8819 34.0627 11.3255 34.0627 11.8179C34.0627 12.7642 33.2942 13.5306 32.3464 13.5306H12.093C11.1452 13.5306 10.3767 12.7642 10.3767 11.8179C10.3767 10.8716 11.1452 10.1052 12.093 10.1052Z" fill="#FD6262"/>
<path d="M37.3916 36.3956C37.7565 36.0497 38.3482 36.0497 38.7131 36.3956L49.0206 46.1667C49.3855 46.5126 49.3855 47.0735 49.0206 47.4194C48.6557 47.7653 48.064 47.7653 47.6991 47.4194L37.3916 37.6483C37.0267 37.3024 37.0267 36.7415 37.3916 36.3956Z" fill="#FD6262"/>
<path d="M37.5129 47.4196C37.148 47.0737 37.148 46.5129 37.5129 46.1669L47.8204 36.3958C48.1853 36.0499 48.7769 36.0499 49.1419 36.3958C49.5068 36.7417 49.5068 37.3026 49.1419 37.6485L38.8344 47.4196C38.4695 47.7656 37.8778 47.7656 37.5129 47.4196Z" fill="#FD6262"/>
<path d="M43.3105 27C40.3558 27 37.4674 27.8743 35.0106 29.5124C32.5538 31.1505 30.639 33.4787 29.5083 36.2028C28.3776 38.9268 28.0817 41.9242 28.6582 44.816C29.2346 47.7078 30.6574 50.3641 32.7467 52.449C34.8361 54.5339 37.498 55.9537 40.396 56.5289C43.2939 57.1041 46.2977 56.8089 49.0275 55.6806C51.7574 54.5523 54.0906 52.6415 55.7321 50.19C57.3737 47.7384 58.2499 44.8561 58.2499 41.9077C58.2455 37.9553 56.6701 34.166 53.8693 31.3712C51.0686 28.5765 47.2713 27.0044 43.3105 27ZM43.3105 54.5065C40.8134 54.5065 38.3724 53.7676 36.2961 52.3832C34.2198 50.9988 32.6016 49.0312 31.646 46.729C30.6904 44.4269 30.4404 41.8937 30.9275 39.4498C31.4147 37.0059 32.6171 34.761 34.3829 32.999C36.1486 31.237 38.3982 30.0371 40.8474 29.551C43.2965 29.0649 45.8351 29.3144 48.1421 30.2679C50.4491 31.2215 52.421 32.8363 53.8083 34.9082C55.1956 36.98 55.9361 39.4159 55.9361 41.9077C55.9323 45.2479 54.6009 48.4503 52.2339 50.8122C49.867 53.1741 46.6578 54.5027 43.3105 54.5065Z" fill="#FD6262"/>
<path d="M37.3916 36.3956C37.7565 36.0497 38.3482 36.0497 38.7131 36.3956L49.0206 46.1667C49.3855 46.5126 49.3855 47.0735 49.0206 47.4194C48.6557 47.7653 48.064 47.7653 47.6991 47.4194L37.3916 37.6483C37.0267 37.3024 37.0267 36.7415 37.3916 36.3956Z" stroke="#FD6262" stroke-width="1.1"/>
<path d="M37.5129 47.4196C37.148 47.0737 37.148 46.5129 37.5129 46.1669L47.8204 36.3958C48.1853 36.0499 48.7769 36.0499 49.1419 36.3958C49.5068 36.7417 49.5068 37.3026 49.1419 37.6485L38.8344 47.4196C38.4695 47.7656 37.8778 47.7656 37.5129 47.4196Z" stroke="#FD6262" stroke-width="1.1"/>
<path d="M43.3105 27C40.3558 27 37.4674 27.8743 35.0106 29.5124C32.5538 31.1505 30.639 33.4787 29.5083 36.2028C28.3776 38.9268 28.0817 41.9242 28.6582 44.816C29.2346 47.7078 30.6574 50.3641 32.7467 52.449C34.8361 54.5339 37.498 55.9537 40.396 56.5289C43.2939 57.1041 46.2977 56.8089 49.0275 55.6806C51.7574 54.5523 54.0906 52.6415 55.7321 50.19C57.3737 47.7384 58.2499 44.8561 58.2499 41.9077C58.2455 37.9553 56.6701 34.166 53.8693 31.3712C51.0686 28.5765 47.2713 27.0044 43.3105 27ZM43.3105 54.5065C40.8134 54.5065 38.3724 53.7676 36.2961 52.3832C34.2198 50.9988 32.6016 49.0312 31.646 46.729C30.6904 44.4269 30.4404 41.8937 30.9275 39.4498C31.4147 37.0059 32.6171 34.761 34.3829 32.999C36.1486 31.237 38.3982 30.0371 40.8474 29.551C43.2965 29.0649 45.8351 29.3144 48.1421 30.2679C50.4491 31.2215 52.421 32.8363 53.8083 34.9082C55.1956 36.98 55.9361 39.4159 55.9361 41.9077C55.9323 45.2479 54.6009 48.4503 52.2339 50.8122C49.867 53.1741 46.6578 54.5027 43.3105 54.5065Z" stroke="#FD6262" stroke-width="1.1"/>
</svg>
