<svg width="24" height="24" viewBox="0 0 24 24" fill="none" xmlns="http://www.w3.org/2000/svg">
<path d="M22 18.8337V15.5003C22 15.2793 21.9122 15.0674 21.7559 14.9111C21.5996 14.7548 21.3877 14.667 21.1667 14.667C20.9457 14.667 20.7337 14.7548 20.5774 14.9111C20.4211 15.0674 20.3333 15.2793 20.3333 15.5003V18.8337C20.3333 19.0547 20.2455 19.2666 20.0893 19.4229C19.933 19.5792 19.721 19.667 19.5 19.667H4.5C4.27899 19.667 4.06702 19.5792 3.91074 19.4229C3.75446 19.2666 3.66667 19.0547 3.66667 18.8337V15.5003C3.66667 15.2793 3.57887 15.0674 3.42259 14.9111C3.26631 14.7548 3.05435 14.667 2.83333 14.667C2.61232 14.667 2.40036 14.7548 2.24408 14.9111C2.0878 15.0674 2 15.2793 2 15.5003V18.8337C2 19.4967 2.26339 20.1326 2.73223 20.6014C3.20107 21.0703 3.83696 21.3337 4.5 21.3337H19.5C20.163 21.3337 20.7989 21.0703 21.2678 20.6014C21.7366 20.1326 22 19.4967 22 18.8337Z" fill="#191A1C"/>
<path d="M7.37202 6.51276L11.5387 3.17943C11.6858 3.06317 11.8678 2.99993 12.0554 2.99993C12.2429 2.99993 12.4249 3.06317 12.572 3.17943L16.7387 6.51276C16.8905 6.65607 16.983 6.85114 16.9979 7.05938C17.0128 7.26762 16.9489 7.47386 16.819 7.6373C16.6891 7.80073 16.5026 7.90945 16.2964 7.94194C16.0901 7.97443 15.8792 7.92833 15.7054 7.81276L12.8887 5.56276L12.8887 17.1628C12.8887 17.3838 12.8009 17.5957 12.6446 17.752C12.4883 17.9083 12.2764 17.9961 12.0554 17.9961C11.8343 17.9961 11.6224 17.9083 11.4661 17.752C11.3098 17.5957 11.222 17.3838 11.222 17.1628L11.222 5.56276L8.40536 7.81276C8.32144 7.89197 8.22199 7.95289 8.1133 7.99166C8.00461 8.03042 7.88906 8.0462 7.77396 8.03797C7.65885 8.02975 7.54671 7.99771 7.44464 7.94389C7.34257 7.89007 7.25278 7.81563 7.18098 7.7253C7.10918 7.63496 7.05692 7.5307 7.02751 7.41911C6.99811 7.30753 6.9922 7.19105 7.01015 7.07706C7.02811 6.96307 7.06955 6.85406 7.13184 6.75692C7.19413 6.65978 7.27592 6.57664 7.37202 6.51276Z" fill="#191A1C"/>
</svg>
